# xmcd
#
# Track frame offsets: 
#        150
#        11409
#        31680
#        51052
#        63216
#        79109
#        93038
#        107116
#        120345
#        143066
#        160970
#        173182
#        186468
#        202545
#        225388
#        239397
#        258921
#
# Disc length: 3640 seconds
#
# Revision: 0
# Processed by: cddbd v1.5.2PL0 Copyright (c) Steve Scherf et al.
# Submitted via: ExactAudioCopyFreeDBPlugin 1.0
#
DISCID=c60e3611
DTITLE=The Blind Boys Of Alabama - Atom Bomb [2016 Reissue]
DYEAR=2005
DGENRE=Gospel
TTITLE0=(Jesus Hits Like The) Atom Bomb
TTITLE1=Demons (Feat. The Gift of Gab)
TTITLE2=Talk About Suffering
TTITLE3=I Know I've Been Converted
TTITLE4=Old Blind Barnabas
TTITLE5=Spirit In The Sky
TTITLE6=Faith And Grace
TTITLE7=New Born Soul
TTITLE8=Presence Of The Lord
TTITLE9=Moses
TTITLE10=I Know I've Been Converted [Instrumental]
TTITLE11=New Born Soul [Instrumental]
TTITLE12=Old Blind Barnabas [Instrumental]
TTITLE13=Presence Of The Lord [Instrumental]
TTITLE14=Spirit In The Sky [Instrumental]
TTITLE15=Talk About Suffering [Instrumental]
TTITLE16=Faith And Grace [Instrumental]
EXTD=
EXTT0=
EXTT1=
EXTT2=
EXTT3=
EXTT4=
EXTT5=
EXTT6=
EXTT7=
EXTT8=
EXTT9=
EXTT10=
EXTT11=
EXTT12=
EXTT13=
EXTT14=
EXTT15=
EXTT16=
PLAYORDER=
